<?xml version="1.0" encoding="utf-8"?>
<!-- Generator: Adobe Illustrator 27.2.0, SVG Export Plug-In . SVG Version: 6.00 Build 0)  -->
<svg version="1.1" id="Capa_1" xmlns="http://www.w3.org/2000/svg" xmlns:xlink="http://www.w3.org/1999/xlink" x="0px" y="0px"
	 viewBox="0 0 91.54 160.26" style="enable-background:new 0 0 91.54 160.26;" xml:space="preserve">
<style type="text/css">
	.st0{fill:#FFFFFF;}
</style>
<g>
	<path class="st0" d="M76.74,5.71c5.04,0,9.12,4.08,9.12,9.12v139.75H5.68V5.71H76.74 M76.74,0H5.68H0v5.68v148.9v5.68h5.68h80.18
		h5.68v-5.68V14.83C91.54,6.65,84.89,0,76.74,0L76.74,0z"/>
	<path class="st0" d="M26.89,53.65l-7.62-25.42h-0.1v25.42H13.7V15.3h6.45l6.85,22.85h0.1V15.3h5.48v38.35L26.89,53.65L26.89,53.65z
		"/>
	<path class="st0" d="M46.27,20.68v10.86h8.49v5.35h-8.49v11.39h10.52v5.38H40.46V15.3h16.34v5.38H46.27z"/>
	<path class="st0" d="M77.17,23.35v0.97l-5.58,0.53v-1.44c0-2.2-1.04-3.34-2.94-3.34c-1.9,0-2.94,1.14-2.94,3.34v0.5
		c0,2.24,0.97,4.18,4.88,7.45c5.31,4.48,7.28,7.65,7.28,12.26v1.9c0,5.48-3.24,8.59-8.99,8.59c-5.75,0-8.99-3.11-8.99-8.59v-2.57
		l5.58-0.53v2.74c0,2.41,1.1,3.61,3.27,3.61c2.2,0,3.27-1.2,3.27-3.61V43.9c0-2.41-1.14-4.31-5.04-7.62
		c-5.31-4.48-7.12-7.65-7.12-12.16v-0.84c0-5.48,3.11-8.59,8.65-8.59S77.17,17.87,77.17,23.35z"/>
	<path class="st0" d="M32.47,99.32V72.7h-0.1l-4.81,21.15h-3.44L19.31,72.7h-0.1v26.63H13.7V60.97h7.62l4.54,20.58h0.1l4.48-20.58
		h7.82v38.35L32.47,99.32L32.47,99.32z"/>
	<path class="st0" d="M53.02,99.32l-1.27-8.72h-6.41l-1.27,8.72h-5.81l6.61-38.35h7.38l6.61,38.35H53.02z M46.14,85.36h4.88
		l-2.34-16.17h-0.17L46.14,85.36z"/>
	<path class="st0" d="M72.13,99.32L64.51,73.9h-0.1v25.42h-5.48V60.97h6.45l6.85,22.85h0.1V60.97h5.51v38.35L72.13,99.32
		L72.13,99.32z"/>
	<path class="st0" d="M22.08,106.64c6.25,0,9.66,3.41,9.66,9.69v3.07c0,6.31-3.41,9.69-9.66,9.69h-2.57v15.87H13.7v-38.32H22.08z
		 M19.51,123.71h2.34c2.81,0,4.04-1.47,4.04-4.71v-2.27c0-3.24-1.27-4.71-4.04-4.71h-2.34V123.71z"/>
	<path class="st0" d="M45,128.76h-2.67v16.2h-5.81v-38.32h8.39c6.25,0,9.66,3.41,9.66,9.69v2.74c0,4.04-1.44,6.92-4.11,8.42
		l5.31,17.47h-6.15L45,128.76z M42.3,123.41h2.34c2.81,0,4.04-1.47,4.04-4.71v-1.97c0-3.24-1.27-4.71-4.04-4.71H42.3V123.41z"/>
	<path class="st0" d="M77.84,115.79v20.05c0,6.01-3.57,9.69-9.35,9.69s-9.35-3.67-9.35-9.69v-20.05c0-6.01,3.57-9.69,9.35-9.69
		S77.84,109.75,77.84,115.79z M64.91,115.83v19.94c0,2.84,1.27,4.38,3.57,4.38c2.31,0,3.57-1.54,3.57-4.38v-19.94
		c0-2.84-1.27-4.38-3.57-4.38C66.18,111.45,64.91,112.99,64.91,115.83z"/>
</g>
</svg>
